REM DIRINDEX 1\2,1\3\7,1\3\8,1\4\9,1\4\10,1\4\11,1\5\12,1\5\13,1\5\14,1\6\15,1\6\16,1\6\17
REM DIRNAME "folder01","folder02","folder03","folder04","folder05","folder06","folder07","folder08","folder09","folder10","folder11","folder12","folder13","folder14","folder15","folder16","folder17"
TITLE ""
FILE "2Q_t_1053-1069.mp3" MP3
  TRACK 01 AUDIO
    TITLE "0:"
    INDEX 01 00:00:00
  TRACK 02 AUDIO
    TITLE "7:cjc174_3893"
    INDEX 01 00:00:14
  TRACK 03 AUDIO
    TITLE "0:"
    INDEX 01 00:01:39
  TRACK 04 AUDIO
    TITLE "8:cjc174_3894"
    INDEX 01 00:02:13
  TRACK 05 AUDIO
    TITLE "0:"
    INDEX 01 00:04:24
  TRACK 06 AUDIO
    TITLE "7:cjc174_3895"
    INDEX 01 00:04:67
  TRACK 07 AUDIO
    TITLE "0:"
    INDEX 01 00:06:21
  TRACK 08 AUDIO
    TITLE "8:cjc174_3896"
    INDEX 01 00:06:70
  TRACK 09 AUDIO
    TITLE "0:"
    INDEX 01 00:09:54
  TRACK 10 AUDIO
    TITLE "7:cjc174_3897"
    INDEX 01 00:10:24
  TRACK 11 AUDIO
    TITLE "0:"
    INDEX 01 00:11:34
  TRACK 12 AUDIO
    TITLE "8:cjc174_3898"
    INDEX 01 00:12:04
  TRACK 13 AUDIO
    TITLE "0:"
    INDEX 01 00:14:34
  TRACK 14 AUDIO
    TITLE "7:cjc174_3899"
    INDEX 01 00:15:06
  TRACK 15 AUDIO
    TITLE "0:"
    INDEX 01 00:16:03
  TRACK 16 AUDIO
    TITLE "8:cjc174_3900"
    INDEX 01 00:16:54
  TRACK 17 AUDIO
    TITLE "0:"
    INDEX 01 00:18:65
  TRACK 18 AUDIO
    TITLE "7:cjc174_3901"
    INDEX 01 00:19:35
  TRACK 19 AUDIO
    TITLE "0:"
    INDEX 01 00:21:16
  TRACK 20 AUDIO
    TITLE "8:cjc174_3902"
    INDEX 01 00:21:65
  TRACK 21 AUDIO
    TITLE "0:"
    INDEX 01 00:24:28
  TRACK 22 AUDIO
    TITLE "2:cjc174_3903"
    INDEX 01 00:24:75
  TRACK 23 AUDIO
    TITLE "0:"
    INDEX 01 00:26:19
  TRACK 24 AUDIO
    TITLE "7:cjc174_3904"
    INDEX 01 00:26:66
  TRACK 25 AUDIO
    TITLE "0:"
    INDEX 01 00:27:66
  TRACK 26 AUDIO
    TITLE "8:cjc174_3905"
    INDEX 01 00:28:40
  TRACK 27 AUDIO
    TITLE "0:"
    INDEX 01 00:30:47
  TRACK 28 AUDIO
    TITLE "7:cjc174_3906"
    INDEX 01 00:31:17
  TRACK 29 AUDIO
    TITLE "0:"
    INDEX 01 00:32:44
  TRACK 30 AUDIO
    TITLE "8:cjc174_3907"
    INDEX 01 00:33:18
  TRACK 31 AUDIO
    TITLE "0:"
    INDEX 01 00:36:22
  TRACK 32 AUDIO
    TITLE "7:cjc174_3908"
    INDEX 01 00:36:67
  TRACK 33 AUDIO
    TITLE "0:"
    INDEX 01 00:38:15
  TRACK 34 AUDIO
    TITLE "8:cjc174_3909"
    INDEX 01 00:38:64
  TRACK 35 AUDIO
    TITLE "0:"
    INDEX 01 00:41:25
  TRACK 36 AUDIO
    TITLE "7:cjc174_3910"
    INDEX 01 00:41:70
  TRACK 37 AUDIO
    TITLE "0:"
    INDEX 01 00:43:18
  TRACK 38 AUDIO
    TITLE "8:cjc174_3911"
    INDEX 01 00:43:67
  TRACK 39 AUDIO
    TITLE "0:"
    INDEX 01 00:46:54
  TRACK 40 AUDIO
    TITLE "7:cjc174_3912"
    INDEX 01 00:47:24
  TRACK 41 AUDIO
    TITLE "0:"
    INDEX 01 00:48:31
  TRACK 42 AUDIO
    TITLE "8:cjc174_3913"
    INDEX 01 00:49:05
  TRACK 43 AUDIO
    TITLE "0:"
    INDEX 01 00:50:40
  TRACK 44 AUDIO
    TITLE "7:cjc174_3914"
    INDEX 01 00:51:08
  TRACK 45 AUDIO
    TITLE "0:"
    INDEX 01 00:52:23
  TRACK 46 AUDIO
    TITLE "8:cjc174_3915"
    INDEX 01 00:52:70
  TRACK 47 AUDIO
    TITLE "0:"
    INDEX 01 00:55:52
  TRACK 48 AUDIO
    TITLE "7:cjc174_3916"
    INDEX 01 00:56:25
  TRACK 49 AUDIO
    TITLE "0:"
    INDEX 01 00:57:40
  TRACK 50 AUDIO
    TITLE "8:cjc174_3917"
    INDEX 01 00:58:27
  TRACK 51 AUDIO
    TITLE "0:"
    INDEX 01 01:01:39
  TRACK 52 AUDIO
    TITLE "7:cjc174_3918"
    INDEX 01 01:02:09
  TRACK 53 AUDIO
    TITLE "0:"
    INDEX 01 01:03:15
  TRACK 54 AUDIO
    TITLE "8:cjc174_3919"
    INDEX 01 01:04:01
  TRACK 55 AUDIO
    TITLE "0:"
    INDEX 01 01:05:25
  TRACK 56 AUDIO
    TITLE "7:cjc174_3920"
    INDEX 01 01:05:70
  TRACK 57 AUDIO
    TITLE "0:"
    INDEX 01 01:07:03
  TRACK 58 AUDIO
    TITLE "8:cjc174_3921"
    INDEX 01 01:07:50
  TRACK 59 AUDIO
    TITLE "0:"
    INDEX 01 01:08:65
  TRACK 60 AUDIO
    TITLE "7:cjc174_3922"
    INDEX 01 01:09:33
  TRACK 61 AUDIO
    TITLE "0:"
    INDEX 01 01:10:64
  TRACK 62 AUDIO
    TITLE "8:cjc174_3923"
    INDEX 01 01:11:36
  TRACK 63 AUDIO
    TITLE "0:"
    INDEX 01 01:16:55
  TRACK 64 AUDIO
    TITLE "7:cjc174_3924"
    INDEX 01 01:17:25
  TRACK 65 AUDIO
    TITLE "0:"
    INDEX 01 01:18:40
  TRACK 66 AUDIO
    TITLE "8:cjc174_3925"
    INDEX 01 01:19:18
  TRACK 67 AUDIO
    TITLE "0:"
    INDEX 01 01:20:37
  TRACK 68 AUDIO
    TITLE "7:cjc174_3926"
    INDEX 01 01:21:05
  TRACK 69 AUDIO
    TITLE "0:"
    INDEX 01 01:22:22
  TRACK 70 AUDIO
    TITLE "8:cjc174_3927"
    INDEX 01 01:22:69
  TRACK 71 AUDIO
    TITLE "0:"
    INDEX 01 01:24:15
